<?xml version="1.0" encoding="UTF-8" standalone="no"?>
<!-- Created with Inkscape (http://www.inkscape.org/) -->

<svg
   xmlns:svg="http://www.w3.org/2000/svg"
   xmlns="http://www.w3.org/2000/svg"
   version="1.0"
   width="800"
   height="600"
   id="svg1901">
  <defs
     id="defs1903" />
  <rect
     width="148.81267"
     height="47.493404"
     x="37.414246"
     y="428.44327"
     id="rect6433"
     style="fill:#c0c0ff;fill-opacity:1;fill-rule:evenodd;stroke:none" />
  <rect
     width="148.81267"
     height="47.493404"
     x="37.414246"
     y="135.56729"
     id="rect6431"
     style="fill:#ffc0c0;fill-opacity:1;fill-rule:evenodd;stroke:none" />
  <path
     d="m 225.07812,66.21875 -17.42187,38.3125 9.71875,0 0,161.8125 -14.03125,0 0,78.28125 44.59375,0 0,-78.28125 -14.5625,0 0,-161.8125 9.125,0 -17.42188,-38.3125 z"
     id="path4194"
     style="color:#000000;fill:#ffc0c0;fill-opacity:1;fill-rule:nonzero;stroke:none;stroke-width:1;marker:none;visibility:visible;display:inline;overflow:visible;enable-background:accumulate" />
  <path
     d="m 422.875,266.34375 0,78.28125 14.1875,0 0.5625,65.71875 -9.8125,0 17.40625,38.3125 17.40625,-38.3125 -9,0 -0.5625,-65.71875 14.375,0 0,-78.28125 -44.5625,0 z"
     id="rect3154"
     style="fill:#c0c0ff;fill-opacity:1;stroke:none" />
  <path
     d="m 335.8125,266.34375 0,78.28125 14.875,0 0.65625,110.3125 -9.90625,0 17.40625,38.3125 17.40625,-38.3125 -8.90625,0 -0.65625,-110.3125 13.71875,0 0,-78.28125 -44.59375,0 z"
     id="rect3156"
     style="fill:#c0c0ff;fill-opacity:1;stroke:none" />
  <path
     d="m 247.9375,266.34375 0,78.28125 13.9375,0 0,152.09375 -9.625,0 17.42187,38.3125 17.42188,-38.3125 -9.21875,0 0,-152.09375 14.625,0 0,-78.28125 -44.5625,0 z"
     id="rect3148"
     style="fill:#c0c0ff;fill-opacity:1;stroke:none" />
  <path
     d="m 314.26562,108 -17.42187,38.3125 10.03125,0 -0.71875,120.03125 -13.65625,0 0,78.28125 44.59375,0 0,-78.28125 -14.90625,0 0.6875,-120.03125 8.8125,0 L 314.26562,108 z"
     id="rect3146"
     style="fill:#ffc0c0;fill-opacity:1;stroke:none" />
  <path
     d="m 400.64062,152.59375 -17.42187,38.3125 9.96875,0 -0.65625,75.4375 -14.25,0 0,78.28125 44.59375,0 0,-78.28125 -14.34375,0 0.65625,-75.4375 8.875,0 -17.42188,-38.3125 z"
     id="rect3152"
     style="fill:#ffc0c0;fill-opacity:1;stroke:none" />
  <path
     d="m 485.625,194.375 -17.40625,38.3125 9.8125,0 0,33.65625 -12.6875,0 0,78.28125 44.5625,0 0,-78.28125 -15.875,0 0,-33.65625 9,0 L 485.625,194.375 z"
     id="rect3161"
     style="fill:#ffc0c0;fill-opacity:1;stroke:none" />
  <path
     d="m 508.21875,266.34375 0,78.28125 14.3125,0 0,23.90625 -9.71875,0 17.40625,38.3125 17.40625,-38.3125 -9.09375,0 0,-23.90625 14.28125,0 0,-78.28125 -44.59375,0 z"
     id="rect3163"
     style="fill:#c0c0ff;fill-opacity:1;stroke:none" />
  <text
     x="111.23667"
     y="166.48595"
     id="text3165"
     xml:space="preserve"
     style="font-size:39.99506378px;font-style:normal;font-variant:normal;font-weight:normal;font-stretch:normal;text-align:center;line-height:125%;writing-mode:lr-tb;text-anchor:middle;fill:#000000;fill-opacity:1;stroke:none;font-family:DejaVu Sans;-inkscape-font-specification:DejaVu Sans"><tspan
       x="111.23667"
       y="166.48595"
       id="tspan3167"
       style="font-size:25.99679184px;font-style:normal;font-variant:normal;font-weight:normal;font-stretch:normal;text-align:center;text-anchor:middle;fill:#000000;fill-opacity:1;font-family:DejaVu Sans;-inkscape-font-specification:DejaVu Sans">Longitude</tspan></text>
  <text
     x="111.23667"
     y="461.88165"
     id="text3169"
     xml:space="preserve"
     style="font-size:39.99506378px;font-style:normal;font-variant:normal;font-weight:normal;font-stretch:normal;text-align:center;line-height:125%;writing-mode:lr-tb;text-anchor:middle;fill:#000000;fill-opacity:1;stroke:none;font-family:DejaVu Sans;-inkscape-font-specification:DejaVu Sans"><tspan
       x="111.23667"
       y="461.88165"
       id="tspan3171"
       style="font-size:25.99679184px;font-style:normal;font-variant:normal;font-weight:normal;font-stretch:normal;text-align:center;text-anchor:middle;fill:#000000;fill-opacity:1;font-family:DejaVu Sans;-inkscape-font-specification:DejaVu Sans">Latitude</tspan></text>
  <text
     x="202.62303"
     y="53.881279"
     id="text4150"
     xml:space="preserve"
     style="font-size:39.99506378px;font-style:normal;font-variant:normal;font-weight:normal;font-stretch:normal;text-align:start;line-height:125%;writing-mode:lr-tb;text-anchor:start;fill:#000000;fill-opacity:1;stroke:none;font-family:DejaVu Sans;-inkscape-font-specification:DejaVu Sans"><tspan
       x="202.62303"
       y="53.881279"
       id="tspan4152"
       style="font-size:25.99679184px;font-style:normal;font-variant:normal;font-weight:normal;font-stretch:normal;fill:#000000;fill-opacity:1;font-family:DejaVu Sans;-inkscape-font-specification:DejaVu Sans">Field</tspan></text>
  <text
     x="250.72189"
     y="564.95557"
     id="text4170"
     xml:space="preserve"
     style="font-size:39.99506378px;font-style:normal;font-variant:normal;font-weight:normal;font-stretch:normal;text-align:start;line-height:125%;writing-mode:lr-tb;text-anchor:start;fill:#000000;fill-opacity:1;stroke:none;font-family:DejaVu Sans;-inkscape-font-specification:DejaVu Sans"><tspan
       x="250.72189"
       y="564.95557"
       id="tspan4172"
       style="font-size:25.99679184px;font-style:normal;font-variant:normal;font-weight:normal;font-stretch:normal;fill:#000000;fill-opacity:1;font-family:DejaVu Sans;-inkscape-font-specification:DejaVu Sans">Field</tspan></text>
  <text
     x="298.64316"
     y="98.960983"
     id="text4232"
     xml:space="preserve"
     style="font-size:39.99506378px;font-style:normal;font-variant:normal;font-weight:normal;font-stretch:normal;text-align:start;line-height:125%;writing-mode:lr-tb;text-anchor:start;fill:#000000;fill-opacity:1;stroke:none;font-family:DejaVu Sans;-inkscape-font-specification:DejaVu Sans"><tspan
       x="298.64316"
       y="98.960983"
       id="tspan4234"
       style="font-size:25.99679184px;font-style:normal;font-variant:normal;font-weight:normal;font-stretch:normal;fill:#000000;fill-opacity:1;font-family:DejaVu Sans;-inkscape-font-specification:DejaVu Sans">Square</tspan></text>
  <text
     x="340.83203"
     y="523.66199"
     id="text4236"
     xml:space="preserve"
     style="font-size:39.99506378px;font-style:normal;font-variant:normal;font-weight:normal;font-stretch:normal;text-align:start;line-height:125%;writing-mode:lr-tb;text-anchor:start;fill:#000000;fill-opacity:1;stroke:none;font-family:DejaVu Sans;-inkscape-font-specification:DejaVu Sans"><tspan
       x="340.83203"
       y="523.66199"
       id="tspan4238"
       style="font-size:25.99679184px;font-style:normal;font-variant:normal;font-weight:normal;font-stretch:normal;fill:#000000;fill-opacity:1;font-family:DejaVu Sans;-inkscape-font-specification:DejaVu Sans">Square</tspan></text>
  <text
     x="381.61456"
     y="141.14984"
     id="text4240"
     xml:space="preserve"
     style="font-size:39.99506378px;font-style:normal;font-variant:normal;font-weight:normal;font-stretch:normal;text-align:start;line-height:125%;writing-mode:lr-tb;text-anchor:start;fill:#000000;fill-opacity:1;stroke:none;font-family:DejaVu Sans;-inkscape-font-specification:DejaVu Sans"><tspan
       x="381.61456"
       y="141.14984"
       id="tspan4242"
       style="font-size:25.99679184px;font-style:normal;font-variant:normal;font-weight:normal;font-stretch:normal;fill:#000000;fill-opacity:1;font-family:DejaVu Sans;-inkscape-font-specification:DejaVu Sans">Subsquare</tspan></text>
  <text
     x="437.86633"
     y="477.25424"
     id="text4318"
     xml:space="preserve"
     style="font-size:39.99506378px;font-style:normal;font-variant:normal;font-weight:normal;font-stretch:normal;text-align:start;line-height:125%;writing-mode:lr-tb;text-anchor:start;fill:#000000;fill-opacity:1;stroke:none;font-family:DejaVu Sans;-inkscape-font-specification:DejaVu Sans"><tspan
       x="437.86633"
       y="477.25424"
       id="tspan4320"
       style="font-size:25.99679184px;font-style:normal;font-variant:normal;font-weight:normal;font-stretch:normal;fill:#000000;fill-opacity:1;font-family:DejaVu Sans;-inkscape-font-specification:DejaVu Sans">Subsquare</tspan></text>
  <text
     x="477.24258"
     y="187.55756"
     id="text4338"
     xml:space="preserve"
     style="font-size:39.99506378px;font-style:normal;font-variant:normal;font-weight:normal;font-stretch:normal;text-align:start;line-height:125%;writing-mode:lr-tb;text-anchor:start;fill:#000000;fill-opacity:1;stroke:none;font-family:DejaVu Sans;-inkscape-font-specification:DejaVu Sans"><tspan
       x="477.24258"
       y="187.55756"
       id="tspan4340"
       style="font-size:25.99679184px;font-style:normal;font-variant:normal;font-weight:normal;font-stretch:normal;fill:#000000;fill-opacity:1;font-family:DejaVu Sans;-inkscape-font-specification:DejaVu Sans">Extended square</tspan></text>
  <text
     x="523.65033"
     y="430.84653"
     id="text4344"
     xml:space="preserve"
     style="font-size:39.99506378px;font-style:normal;font-variant:normal;font-weight:normal;font-stretch:normal;text-align:start;line-height:125%;writing-mode:lr-tb;text-anchor:start;fill:#000000;fill-opacity:1;stroke:none;font-family:DejaVu Sans;-inkscape-font-specification:DejaVu Sans"><tspan
       x="523.65033"
       y="430.84653"
       id="tspan4346"
       style="font-size:25.99679184px;font-style:normal;font-variant:normal;font-weight:normal;font-stretch:normal;fill:#000000;fill-opacity:1;font-family:DejaVu Sans;-inkscape-font-specification:DejaVu Sans">Extended square</tspan></text>
  <path
     d="m 209.36239,279.74969 16.90808,0 c 5.83518,4e-5 10.21744,1.11319 13.1468,3.33943 2.95273,2.20289 4.42911,5.50718 4.42915,9.91284 -4e-5,3.37462 -0.86711,6.01102 -2.60124,7.90918 -1.73421,1.89823 -4.27685,2.99965 -7.62798,3.30427 4.00729,0.39841 7.01864,1.74591 9.03405,4.04248 2.03876,2.2966 3.05818,5.50715 3.05822,9.63162 -4e-5,5.06189 -1.52329,8.7294 -4.56976,11.00256 -3.04652,2.27314 -8.00293,3.40972 -14.86924,3.40972 l -16.90808,0 0,-52.5521 m 10.01829,28.71912 0,15.53714 6.88979,0 c 3.30425,0 5.61255,-0.56243 6.92492,-1.68729 1.33574,-1.12486 2.00362,-3.08164 2.00366,-5.87038 -4e-5,-2.83557 -0.69136,-4.87437 -2.07397,-6.11642 -1.38267,-1.24203 -3.66755,-1.86303 -6.85461,-1.86305 l -6.88979,0 m 0,-20.45842 0,12.19772 6.88979,0 c 2.62463,2e-5 4.48768,-0.46866 5.58915,-1.40609 1.12482,-0.93734 1.68725,-2.48403 1.68729,-4.64005 -4e-5,-2.15595 -0.57419,-3.71434 -1.72245,-4.6752 -1.12488,-0.98422 -2.97621,-1.47634 -5.55399,-1.47638 l -6.88979,0 m 36.80406,44.2914 0,-52.48181 10.36982,0 0,43.34232 22.18084,0 0,9.13949 -32.55066,0 m 42.00653,-9.13949 11.60013,0 0,-34.0622 -10.79163,2.67155 0,-9.35043 10.86194,-2.60124 10.01828,0 0,43.34232 11.60013,0 0,9.13949 -33.28885,0 0,-9.13949 m 43.30716,0 11.60012,0 0,-34.0622 -10.79162,2.67155 0,-9.35043 10.86194,-2.60124 10.01828,0 0,43.34232 11.60013,0 0,9.13949 -33.28885,0 0,-9.13949"
     id="path4426"
     style="font-size:20px;font-style:normal;font-variant:normal;font-weight:normal;font-stretch:normal;text-align:start;line-height:125%;writing-mode:lr-tb;text-anchor:start;fill:#000000;fill-opacity:1;stroke:none;font-family:Sans" />
  <path
     d="m 393.73416,298.52082 c 1.26546,-2.17939 2.73012,-3.80809 4.394,-4.88612 1.68727,-1.1014 3.58547,-1.65212 5.69459,-1.65216 4.66347,4e-5 8.24897,1.78108 10.7565,5.3431 2.5309,3.5621 3.79637,8.67083 3.79641,15.32623 -4e-5,6.56171 -1.24207,11.64701 -3.7261,15.25594 -2.48412,3.60893 -5.97586,5.41339 -10.47527,5.41339 -2.36693,0 -4.42917,-0.57415 -6.18674,-1.72245 -1.75762,-1.14829 -3.1754,-2.859 -4.25339,-5.13216 l 0,5.8352 -10.26435,0 0,-54.69637 10.26435,0 0,20.9154 m 14.34199,14.20136 c -4e-5,-3.79639 -0.63276,-6.77258 -1.89821,-8.92859 -1.2655,-2.15596 -3.01136,-3.23395 -5.23763,-3.23397 -2.22631,2e-5 -3.98391,1.07801 -5.27279,3.23397 -1.28892,2.15601 -1.93336,5.1322 -1.93336,8.92859 0,3.79642 0.64444,6.77261 1.93336,8.92858 1.28888,2.156 3.04648,3.23398 5.27279,3.23398 2.22627,0 3.97213,-1.07798 5.23763,-3.23398 1.26545,-2.15597 1.89817,-5.13216 1.89821,-8.92858 m 51.07572,-5.97582 0,25.55543 -10.2292,0 0,-23.9736 c -2e-5,-2.83555 -0.41013,-4.86264 -1.23033,-6.08127 -0.7968,-1.21857 -2.10912,-1.82788 -3.93701,-1.82792 -1.87479,4e-5 -3.33945,0.83198 -4.39398,2.49579 -1.05457,1.64046 -1.58185,3.92532 -1.58185,6.85464 l 0,22.53236 -10.22919,0 0,-54.69637 10.22919,0 0,21.23176 c 0.72647,-2.17939 1.9685,-3.86669 3.7261,-5.06188 1.75759,-1.19513 3.87842,-1.79272 6.36252,-1.79276 3.72606,4e-5 6.53821,1.24209 8.43646,3.72612 1.89816,2.46066 2.84725,6.13989 2.84729,11.0377"
     id="path4416"
     style="font-size:20px;font-style:normal;font-variant:normal;font-weight:normal;font-stretch:normal;text-align:start;line-height:125%;writing-mode:lr-tb;text-anchor:start;fill:#000000;fill-opacity:1;stroke:none;font-family:Sans" />
  <path
     d="m 471.41989,323.1623 11.60013,0 0,-34.0622 -10.79163,2.67155 0,-9.35043 10.86194,-2.60124 10.01828,0 0,43.34232 11.60013,0 0,9.13949 -33.28885,0 0,-9.13949 m 72.90506,-42.11199 0,9.42072 c -1.85137,-1.05453 -3.63239,-1.83957 -5.34308,-2.35519 -1.68733,-0.53895 -3.31603,-0.80844 -4.88611,-0.8085 -3.74956,6e-5 -6.60859,1.26552 -8.57709,3.79641 -1.94508,2.50755 -2.96449,6.22193 -3.0582,11.14317 1.10141,-1.52324 2.50747,-2.6598 4.21822,-3.40974 1.71071,-0.77331 3.72608,-1.15998 6.04614,-1.16002 4.73375,4e-5 8.38956,1.49986 10.96738,4.49945 2.57778,2.97623 3.86668,7.20617 3.86672,12.68983 -4e-5,5.88211 -1.45298,10.44013 -4.35884,13.67409 -2.88248,3.23398 -6.94838,4.85098 -12.19771,4.85098 -6.39767,0 -11.04944,-2.14427 -13.9553,-6.4328 -2.88246,-4.28853 -4.32371,-11.21344 -4.32369,-20.77478 -2e-5,-9.0926 1.76931,-15.90034 5.30793,-20.42326 3.53862,-4.54628 8.84655,-6.81942 15.92381,-6.81948 1.6404,6e-5 3.32769,0.17582 5.06188,0.52728 1.75756,0.35157 3.52688,0.87885 5.30794,1.58184 m -13.60378,24.95786 c -2.24974,2e-5 -3.97219,0.82024 -5.16734,2.46064 -1.17174,1.617 -1.7576,3.97217 -1.75758,7.06553 -2e-5,3.06994 0.58584,5.42511 1.75758,7.06552 1.19515,1.61701 2.9176,2.42551 5.16734,2.42549 2.24968,2e-5 3.97213,-0.80848 5.16732,-2.42549 1.21857,-1.64041 1.82788,-3.99558 1.8279,-7.06552 -2e-5,-3.06992 -0.60933,-5.42509 -1.8279,-7.06553 -1.19519,-1.6404 -2.91764,-2.46062 -5.16732,-2.46064"
     id="path4412"
     style="font-size:20px;font-style:normal;font-variant:normal;font-weight:normal;font-stretch:normal;text-align:start;line-height:125%;writing-mode:lr-tb;text-anchor:start;fill:#000000;fill-opacity:1;stroke:none;font-family:Sans" />
</svg>
